Coordinates
version=1
nRows=8
nColumns=40
inDegrees=yes

Units are S.I. units (second, meters, Newtons, ...)
Angles are in degrees.

endheader
time	pelvis_tilt	pelvis_list	pelvis_rotation	pelvis_tx	pelvis_ty	pelvis_tz	hip_flexion_r	hip_adduction_r	hip_rotation_r	knee_angle_r	knee_angle_r_beta	ankle_angle_r	subtalar_angle_r	mtp_angle_r	hip_flexion_l	hip_adduction_l	hip_rotation_l	knee_angle_l	knee_angle_l_beta	ankle_angle_l	subtalar_angle_l	mtp_angle_l	lumbar_extension	lumbar_bending	lumbar_rotation	arm_flex_r	arm_add_r	arm_rot_r	elbow_flex_r	pro_sup_r	wrist_flex_r	wrist_dev_r	arm_flex_l	arm_add_l	arm_rot_l	elbow_flex_l	pro_sup_l	wrist_flex_l	wrist_dev_l
      0.00000000	     -6.24699561	      0.32311034	     13.15059267	     -1.33567482	      0.90026999	     -0.97368809	     41.07281945	     -7.46628868	    -18.37492680	    -29.17978972	     -0.50928341	     -0.73362759	     -7.35652411	     10.66049621	     -9.77226691	     -1.02008603	     18.16055645	    -13.75285000	     -0.24003251	     12.61621466	      1.69894357	    -18.17622192	     -6.55369137	     -0.22639858	     -9.82070472	     -2.68795928	    -13.52424724	    -23.65688836	     16.05582289	     89.95437384	      0.00000000	      0.00000000	     11.32190725	     19.98909383	      1.57047493	     36.32038553	     89.95437384	      0.00000000	      0.00000000
      0.01000000	     -6.34986614	      0.07729958	     12.88094590	     -1.32581253	      0.89932785	     -0.97402431	     41.24026585	     -7.19338916	    -18.73000623	    -30.33810600	     -0.52949984	     -0.44031390	     -7.83343834	     10.43330316	    -10.17984956	     -0.63408639	     17.97773315	    -14.03596669	     -0.24497383	     12.27671272	      1.71337068	    -17.83643355	     -6.36049726	      0.08494065	     -9.57579197	     -3.00719793	    -13.68244859	    -23.76454409	     15.79043032	     89.95437384	      0.00000000	      0.00000000	     11.10797575	     19.61612512	      1.66166597	     36.91311541	     89.95437384	      0.00000000	      0.00000000
      0.02000000	     -6.39435343	     -0.13371253	     12.72415379	     -1.31537033	      0.89857319	     -0.97411722	     41.19372038	     -6.94688689	    -19.12049554	    -31.45946274	     -0.54907121	      0.20342559	     -8.59961320	     10.20043911	    -10.61248654	     -0.16439023	     17.92734216	    -14.39949234	     -0.25131855	     11.73148293	      1.71661856	    -17.50023795	     -6.24406679	      0.31271415	     -9.55423727	     -3.33054845	    -13.71060203	    -24.02508853	     15.62057041	     89.95437384	      0.00000000	      0.00000000	     10.90944396	     19.36324069	      1.91589212	     37.43314682	     89.95437384	      0.00000000	      0.00000000
      0.03000000	     -6.01810062	     -0.93488589	     12.62533582	     -1.30408964	      0.89877523	     -0.97351180	     40.33136789	     -5.84145245	    -19.68136964	    -31.90242772	     -0.55680240	      0.86352904	    -10.28521345	     11.58201519	    -11.16053829	      1.47190480	     19.43308072	    -15.27523367	     -0.26660312	     10.52808851	     -0.99823582	    -18.34836371	     -6.40095981	      1.27178840	     -9.45925812	     -3.39796843	    -13.58235292	    -25.89635512	     15.24456982	     89.95437384	      0.00000000	      0.00000000	     10.47753605	     18.99058449	      2.32282633	     38.07911733	     89.95437384	      0.00000000	      0.00000000
      0.04000000	     -6.13113171	     -1.10155747	     12.47675965	     -1.29257915	      0.89840123	     -0.97347309	     40.06235411	     -5.57401561	    -19.92790558	    -32.80130717	     -0.57249081	      1.66830259	    -10.76574910	     11.37860722	    -11.49539990	      1.91582663	     19.23530572	    -15.76451522	     -0.27514270	      9.71205553	     -0.79061524	    -17.95592779	     -6.11021565	      1.44820747	     -9.42308308	     -3.74594007	    -13.60145899	    -25.83334363	     14.95317921	     89.95437384	      0.00000000	      0.00000000	     10.14607448	     18.69454993	      2.57988371	     38.30243522	     89.95437384	      0.00000000	      0.00000000
      0.05000000	     -6.09438814	     -1.31364872	     12.32877537	     -1.28066168	      0.89871065	     -0.97325081	     39.35561778	     -5.09841897	    -20.00177441	    -33.23043685	     -0.57998053	      2.36140668	    -11.40727329	     11.38850320	    -11.93083891	      2.49594412	     19.19156774	    -16.30767280	     -0.28462258	      8.40221696	     -0.75684029	    -17.58943154	     -5.91395980	      1.68819344	     -9.40877534	     -4.06116048	    -13.55160466	    -25.85496686	     14.77277917	     89.95437384	      0.00000000	      0.00000000	      9.62444055	     18.30850490	      3.10412746	     38.56288437	     89.95437384	      0.00000000	      0.00000000
      0.06000000	     -6.01352380	     -1.54312318	     12.24103823	     -1.26820996	      0.89931389	     -0.97322390	     38.64527526	     -4.77206709	    -20.49114834	    -33.61541436	     -0.58669966	      2.29748509	    -12.10229253	     11.48169778	    -12.38736109	      3.11287881	     19.06847824	    -16.90219986	     -0.29499904	      7.00177554	     -0.65063001	    -17.20818149	     -5.70502377	      1.99467095	     -9.39227875	     -4.39451074	    -13.51852024	    -25.93983439	     14.48653467	     89.95437384	      0.00000000	      0.00000000	      9.18967118	     17.84508971	      3.55153181	     38.45599202	     89.95437384	      0.00000000	      0.00000000
      0.07000000	     -5.90673798	     -1.80681731	     12.12526913	     -1.25573853	      0.90033728	     -0.97287516	     37.98339770	     -4.29727898	    -20.66362882	    -33.75437311	     -0.58912495	      2.27812220	    -12.83804222	     11.45591320	    -12.68892136	      3.80795956	     18.92339462	    -17.78785061	     -0.31045656	      5.42214936	     -0.35215988	    -16.74806614	     -5.52458022	      2.31984043	     -9.38143457	     -4.63568417	    -13.45931785	    -26.04626752	     14.17809103	     89.95437384	      0.00000000	      0.00000000	      8.73661468	     17.36750777	      4.11506158	     38.24387359	     89.95437384	      0.00000000	      0.00000000
